<svg xmlns="http://www.w3.org/2000/svg" fill="#000000" height="800" width="800" viewBox="0 0 507.52 507.52" xmlns:v="https://vecta.io/nano"><path d="M386.603 185.92l101.824 161.216V138.944zM218.283 18.645L30.827 125.781l101.056 42.112zm-82.496 183.68L27.264 374.144l208 9.045zm216.81-31.658L253.781 0h-.042l-98.816 170.667zm119.318-47.616L289.237 18.645l86.208 148.928zM19.093 144v203.136l101.568-160.811zm224 363.52V404.843l-194.432-8.427zm29.142-124.288l208.021-9.088-108.523-171.819zm-7.808 124.288l194.41-111.104-194.41 8.469zM154.475 192l99.285 180.523L353.045 192z"/><path d="M204.332 281.764l-48.915-88.949 49.171-.183h98.343l49.172.183-48.801 88.74-49.429 88.949c-.345.115-22.64-39.818-49.543-88.74zm233.421-15.683l-49.53-80.066c.844-.844 99.503-46.377 99.814-46.066.133.133.16 46.439.061 102.903l-.181 102.661zm-63.07-100.843c-2.457-3.825-83.869-144.786-83.693-144.911.106-.075 40.654 23 90.107 51.278l89.913 51.415-47.033 21.71-47.634 21.933c-.331.122-1.078-.519-1.66-1.426zm-218.578 4.686c0-.692 97.254-168.498 97.655-168.498s97.655 167.807 97.655 168.498c0 .241-43.945.437-97.655.437s-97.655-.197-97.655-.437zm-73.063-22.801l-49.85-20.809c-1.105-.486 17.028-11.126 91.061-53.432l92.44-52.596c0 .27-82.259 142.444-83.993 145.17l-1.188 1.868zm-63.796 98.126l.891-100.351c3.917 1.54 99.318 41.371 99.518 41.551S20.665 344.294 19.5 345.653c-.14.163-.255-45.019-.255-100.404zm108.347 132.983l-98.724-5.089c0-.698 106.736-170.086 106.985-169.784.067.081 21.365 38.8 47.329 86.041l49.321 89.636 2.115 3.742-4.151-.091c-2.283-.05-48.577-2.055-102.875-4.455zm19.445 73.904l-95.382-54.96c.269-.269 190.826 7.754 191.238 8.052.101.073.101 22.957 0 50.854l-.183 50.722zm117.414 3.94v-50.854l95.579-4.15 95.852-3.877c.202.202-166.396 95.743-188.172 107.913l-3.259 1.821z" fill="#180f2e"/><path d="M274.951 379.15l49.386-89.75 47.329-86.041c.187-.226 106.957 168.883 107.184 169.765.138.536-29.067 2.04-95.516 4.921L280.195 382.6l-7.424.406zm-75.894-209.501l-42.229-.356 6.507-11.405 72.959-126.065c9.277-15.934 17.137-28.971 17.469-28.971.615 0 14.792 24.165 58.964 100.506l37.437 66.056c-1.593.363-115.07.54-151.106.236zm43.156 179.806l-69.964-126.702-16.049-29.225 48.78-.183h97.564l48.784.183-12.138 22.097-85.382 153.61c-.288 0-5.506-8.901-11.595-19.78zm217.583-49.065l-60.745-96.881-10.541-17.105 4.632-2.335c5.524-2.785 46.165-21.658 74.105-34.414l19.959-9.112.183 50.494v101.635l-.183 51.141zm-84.66-135.166c-1.658-2.066-83.039-143.216-82.736-143.5.115-.108 2.614 1.178 5.554 2.858l88.745 50.63 83.533 47.678c.208.156-92.359 42.812-93.418 43.047-.516.115-1.271-.206-1.677-.713zM82.525 146.626l-48.293-20.573c-.04-1.095 17.465-11.316 104.409-60.963l76.627-43.298c0 .336-38.066 66.351-68.098 118.097l-15.994 26.874c-.207-.019-22.101-9.081-48.652-20.137zm-62.91 144.653c-.466-46.074.076-145.866.794-145.866.145 0 20.712 8.542 45.704 18.982l49.005 20.444c1.96.804 3.68 1.547 3.823 1.651.279.204-18.836 30.843-60.867 97.565l-37.402 59.034c-.29.321-.765-22.993-1.057-51.809zm184.961 89.967l-132.939-5.945-30.424-1.517c-5.364-.267-10.142-.726-10.619-1.02-.912-.564 10.282-18.695 66.213-107.243l39.044-61.449c.699.867 97.984 178.175 97.818 178.28-.124.078-13.216-.419-29.094-1.106zm-43.838 78.31L54.173 397.943c0-.463 7.1-.214 76.627 2.681l105.318 4.67 6.237.446v50.177l-.178 50.162c-.098-.009-36.745-20.944-81.438-46.523zm103.714-3.57v-50.261l7.306-.442c4.018-.243 33.449-1.549 65.4-2.901l84.903-3.6 29.225-.91c2.171.207-.041 1.649-21.819 14.22L265.38 505.891c-.756.29-.928-8.932-.928-49.905z" fill="#121212"/></svg>