<svg xmlns="http://www.w3.org/2000/svg" fill="#000000" height="800" width="800" viewBox="0 0 507.52 507.52" xmlns:v="https://vecta.io/nano"><path d="M386.603 185.92l101.824 161.216V138.944zM218.283 18.645L30.827 125.781l101.056 42.112zm-82.496 183.68L27.264 374.144l208 9.045zm216.81-31.658L253.781 0h-.042l-98.816 170.667zm119.318-47.616L289.237 18.645l86.208 148.928zM19.093 144v203.136l101.568-160.811zm224 363.52V404.843l-194.432-8.427zm29.142-124.288l208.021-9.088-108.523-171.819zm-7.808 124.288l194.41-111.104-194.41 8.469zM154.475 192l99.285 180.523L353.045 192z"/><path d="M204.332 281.764l-48.915-88.949 49.171-.183h98.343l49.172.183-48.801 88.74-49.429 88.949c-.345.115-22.64-39.818-49.543-88.74zm233.421-15.683l-49.53-80.066c.844-.844 99.503-46.377 99.814-46.066.133.133.16 46.439.061 102.903l-.181 102.661zm-63.07-100.843c-2.457-3.825-83.869-144.786-83.693-144.911.106-.075 40.654 23 90.107 51.278l89.913 51.415-47.033 21.71-47.634 21.933c-.331.122-1.078-.519-1.66-1.426zm-218.578 4.686c0-.692 97.254-168.498 97.655-168.498s97.655 167.807 97.655 168.498c0 .241-43.945.437-97.655.437s-97.655-.197-97.655-.437zm-73.063-22.801l-49.85-20.809c-1.105-.486 17.028-11.126 91.061-53.432l92.44-52.596c0 .27-82.259 142.444-83.993 145.17l-1.188 1.868zm-63.796 98.126l.891-100.351c3.917 1.54 99.318 41.371 99.518 41.551S20.665 344.294 19.5 345.653c-.14.163-.255-45.019-.255-100.404zm108.347 132.983l-98.724-5.089c0-.698 106.736-170.086 106.985-169.784.067.081 21.365 38.8 47.329 86.041l49.321 89.636 2.115 3.742-4.151-.091c-2.283-.05-48.577-2.055-102.875-4.455zm19.445 73.904l-95.382-54.96c.269-.269 190.826 7.754 191.238 8.052.101.073.101 22.957 0 50.854l-.183 50.722zm117.414 3.94v-50.854l95.579-4.15 95.852-3.877c.202.202-166.396 95.743-188.172 107.913l-3.259 1.821zm10.499-76.926l49.386-89.75 47.329-86.041c.187-.226 106.957 168.883 107.184 169.765.138.536-29.067 2.04-95.516 4.921L280.195 382.6l-7.424.406z" fill="#180f2e"/></svg>