<?xml version="1.0" standalone="no"?>
<!DOCTYPE svg PUBLIC "-//W3C//DTD SVG 20010904//EN"
 "http://www.w3.org/TR/2001/REC-SVG-20010904/DTD/svg10.dtd">
<svg version="1.0" xmlns="http://www.w3.org/2000/svg"
 width="256.000000pt" height="256.000000pt" viewBox="0 0 256.000000 256.000000"
 preserveAspectRatio="xMidYMid meet">
<metadata>
Created by potrace 1.14, written by Peter Selinger 2001-2017
</metadata>
<g transform="translate(0.000000,256.000000) scale(0.100000,-0.100000)"
fill="#000000" stroke="none">
<path d="M1015 1695 c-273 -44 -490 -129 -706 -273 -120 -81 -173 -131 -163
-155 7 -18 147 -104 269 -165 285 -141 596 -213 926 -213 353 1 643 75 909
234 l75 45 3 -411 c1 -283 6 -414 13 -424 14 -16 51 -17 67 -1 9 9 12 133 12
495 l0 483 -52 41 c-193 154 -444 268 -712 325 -104 22 -152 27 -336 30 -155
2 -240 -1 -305 -11z m526 -81 c200 -27 431 -106 595 -201 69 -41 194 -129 194
-137 0 -3 -35 -28 -77 -56 -149 -99 -334 -174 -549 -220 -142 -31 -472 -39
-634 -16 -265 39 -575 148 -772 273 -48 30 -47 31 65 106 197 131 412 212 662
251 124 19 379 20 516 0z"/>
</g>
</svg>
