<svg xmlns="http://www.w3.org/2000/svg" fill="#000000" height="800" width="800" viewBox="0 0 511.999 511.999" xmlns:v="https://vecta.io/nano"><path d="M505.917 217.41c5.516-5.377 7.463-13.268 5.084-20.593a19.96 19.96 0 0 0-16.217-13.671l-152.358-22.138c-.118-.017-.222-.092-.276-.201l-68.136-138.06C270.605 15.84 263.701 11.548 256 11.548s-14.605 4.291-18.014 11.198l-68.136 138.06a.37.37 0 0 1-.277.202L17.214 183.147c-7.622 1.107-13.836 6.346-16.217 13.671a19.96 19.96 0 0 0 5.084 20.593L116.33 324.876c.087.085.126.206.105.326L90.409 476.944c-2.069 12.06 7.484 23.505 19.779 23.505 3.192 0 6.401-.77 9.367-2.328l136.275-71.645a.36.36 0 0 1 .341.001l136.273 71.642c6.818 3.586 14.924 3 21.156-1.529a19.96 19.96 0 0 0 7.991-19.647L395.565 325.2c-.021-.12.018-.241.105-.325L505.917 217.41zM376.128 328.536l26.025 151.743c.028.159.039.224-.146.359s-.243.104-.387.028l-136.272-71.642a20.08 20.08 0 0 0-18.697-.001l-136.273 71.644c-.143.076-.202.105-.386-.028s-.174-.2-.146-.36l26.025-151.743a20.08 20.08 0 0 0-5.777-17.781L19.846 203.289c-.116-.113-.164-.159-.093-.377s.137-.226.297-.25l152.358-22.139c6.543-.951 12.198-5.058 15.125-10.988l68.136-138.06c.071-.145.101-.205.33-.205s.259.06.33.205l68.136 138.064c2.927 5.929 8.581 10.038 15.124 10.988l152.358 22.138c.16.024.226.033.297.25s.022.264-.093.377L381.906 310.757c-4.737 4.616-6.897 11.263-5.778 17.779z"/><path d="M102.703 498.492c-6.677-3.033-11.356-9.62-11.899-16.751-.22-2.891 3.054-23.248 12.89-80.152l13.185-76.277-14.728-14.667-56.45-55.352C-.467 210.27.71 211.637.71 203.058c0-7.926 4.305-14.608 11.476-17.813 2.777-1.241 17.393-3.57 71.754-11.435L169.83 161c.308-.19 16.06-31.791 35.005-70.224 29.947-60.752 34.859-70.295 37.605-73.071 7.357-7.435 19.761-7.435 27.118 0 2.747 2.775 7.661 12.323 37.624 73.103l35.875 70.412c.775.275 35.578 5.431 77.339 11.457 71.12 10.263 76.2 11.087 80.204 13.011 6.848 3.291 10.665 9.499 10.68 17.37.006 3.348-.425 5.436-1.654 8.011-1.874 3.927-6.226 8.303-72.971 73.367-29.609 28.863-41.479 40.865-41.283 41.738 1.366 6.091 26.069 152.697 26.069 154.71 0 6.3-4.161 13.041-10.252 16.611-2.482 1.454-4.32 1.918-8.475 2.14-6.535.348 1.254 4.119-82.241-39.813l-64.397-33.883-4.915 2.564-65.17 34.25c-74.853 39.363-70.135 37.06-75.892 37.041-2.923-.01-5.584-.478-7.397-1.302zm77.848-54.237l69.876-36.746h5.573 5.573l66.177 34.756 70.129 36.914c2.174 1.187 4.124 1.987 4.333 1.778s-5.58-35.002-12.865-77.317l-12.967-80.265c.61-7.289.961-7.675 52.028-57.327l63.956-63.354c-.23-.23-34.854-5.417-76.943-11.526l-78.963-11.901c-3.86-1.254-8.328-4.668-10.34-7.901-1.018-1.636-17.054-33.879-35.636-71.65l-34.482-68.673c-.383.001-16.213 31.568-35.178 70.149-30.956 62.975-34.818 70.48-37.774 73.406-2.068 2.047-4.529 3.667-6.618 4.357-1.829.603-37.773 6.109-79.876 12.235l-76.943 11.53c-.504.504 4.257 5.214 62.936 62.275 51.729 50.303 52.311 50.938 53.08 57.99.222 2.032-3.918 27.801-12.627 78.603l-13.351 77.496c-.225 1.094-.09 1.916.315 1.916.39 0 32.154-16.535 70.586-36.746z" fill="#180f2e"/></svg>