<svg xmlns="http://www.w3.org/2000/svg" width="512" height="512" viewBox="0 0 512 512">
    <path fill="#202330" d="m 405.10397,63.305378 c 0,0 0.0184,20.789617 0.0184,20.789617 0.007,0.898542 0.3816,1.803247 1.33553,1.870934 21.92816,1.446295 35.00015,10.22249 36.08949,43.191721 0,0 0.15386,80.12433 0.15386,80.12433 -0.012,39.14823 22.22361,45.61036 30.53207,49.30303 -8.00073,3.38492 -30.85208,9.31162 -30.46436,50.62005 0,0 0,80.00741 0,80.00741 -1.07702,19.46025 -8.22845,34.84629 -35.84947,36.77262 -1.36627,0.0184 -1.82787,0.92316 -1.84633,2.0002 0,0 0,20.77115 0,20.77115 0.007,1.44012 0.88625,2.4433 2.0002,2.46174 0,0 13.00427,0.0801 13.00427,0.0801 36.69263,-1.53863 56.69447,-27.8549 57.7715,-55.46976 0,0 0.30771,-95.23958 0.30771,-95.23958 0.69546,-19.07869 9.95786,-31.50446 32.42148,-33.27691 0.67699,-0.0431 1.39705,-0.99702 1.42166,-1.98174 0,0 -0.0184,-13.46584 -0.0184,-13.46584 -0.0555,-0.92934 -0.57235,-1.54477 -1.36014,-1.7417 -26.08241,-2.61564 -31.31366,-16.15536 -32.46453,-31.5414 0,0 0.0677,-101.78789 0.0677,-101.78789 -1.67401,-27.190198 -19.35565,-54.940464 -61.42723,-55.611293 0,0 -10.00092,-0.01203 -10.00092,-0.01203 -1.1078,0.0246 -1.68631,0.86163 -1.69247,2.135585 z"/>
    <path fill="#202330" fill-rule="nonzero" d="m 271.00404,316.05427 c -12.65965,-28.39647 3.90188,-55.13741 45.41342,-51.80171 -26.63015,-11.95187 -38.49586,-57.04528 11.74879,-70.36344 -37.41769,-17.35833 -27.97406,-60.06081 -5.73213,-67.7084 -21.07966,-9.74387 -22.40246,-37.519661 -12.78652,-51.330301 -37.54192,32.876881 -66.77539,51.032421 -73.23753,84.727841 -3.8896,22.50056 4.15422,45.37651 4.00036,65.08295 -0.30773,44.77336 -16.3092,80.00741 -53.23568,92.31622 -16.00149,-49.23533 0.0738,-99.77536 -4.23424,-112.0842 28.85191,-24.69767 37.86195,-41.77618 44.23793,-58.23924 -22.43283,22.61747 -46.15812,30.50745 -56.56523,32.40915 l 6.68942,-10.70875 c -16.13527,6.85008 -28.09357,10.57521 -39.57533,20.28266 -6.07932,5.21973 -8.06448,10.43947 -12.09672,15.6592 -20.92499,5.48358 -15.94607,18.18015 -10.18555,27.19021 0,0 2.80641,-5.71131 8.89929,-7.27453 7.44067,-0.56005 18.01397,-0.16607 18.01397,-0.16607 2.09841,0.13749 7.44067,1.28626 4.25271,17.50931 -10.21635,36.37259 -11.58262,81.57679 2.06787,118.50326 11.97649,34.12623 34.61204,54.76279 69.8953,67.26239 32.38691,9.54551 68.14191,5.52006 101.15757,-11.1235 32.80944,-18.20307 42.78845,-31.52124 55.42963,-52.78473 11.52722,-23.15906 16.90002,-45.54268 17.57084,-64.8983 1.1201,-29.09192 -2.46176,-43.08092 -4.36346,-61.54418 -2.0125,-11.07794 -5.31017,-43.85872 -5.99948,-55.33052 -0.46544,-6.31372 0.1338,-15.23489 1.36468,-20.82924 l 17.83601,29.94627 -8.05613,-81.01674 -49.45687,60.76257 30.55976,-11.39899 c -2.57254,7.83458 -3.13444,11.10465 -4.25453,18.71152 -1.98776,13.5054 0.82573,84.70937 -3.49599,108.92565 -7.50162,41.15433 -31.98549,59.66731 -62.75757,71.05913 -17.0108,4.60967 -36.92648,7.40376 -64.34441,0.91703 -12.4196,-4.03116 -23.38676,-10.51792 -29.2027,-15.44144 8.27769,-1.00934 10.06863,-0.89854 23.83604,6.48675 -3.80342,-19.24486 6.93603,-45.98579 36.60648,-33.70773 z M 141.81974,202.57386 c 2.86883,-0.58798 5.14322,-0.50398 16.21148,-5.87336 -1.79625,7.30777 -9.04586,12.95497 -16.21148,5.87336 z"/>
    <path fill="#202330" d="m 106.89601,63.305378 c 0,0 -0.0184,20.789617 -0.0184,20.789617 -0.007,0.898542 -0.3816,1.803247 -1.33552,1.870934 -21.928175,1.446295 -35.000153,10.22249 -36.089497,43.191721 0,0 -0.153864,80.12433 -0.153864,80.12433 0.01203,39.14823 -22.223587,45.61036 -30.532058,49.30303 8.000745,3.38492 30.852071,9.31162 30.464345,50.62005 0,0 0,80.00741 0,80.00741 1.07703,19.46025 8.228454,34.84629 35.849494,36.77262 1.36626,0.0184 1.82786,0.92316 1.84632,2.0002 0,0 0,20.77115 0,20.77115 -0.007,1.44012 -0.88625,2.4433 -2.0002,2.46174 0,0 -13.004275,0.0801 -13.004275,0.0801 -36.692608,-1.53863 -56.694474,-27.8549 -57.771497,-55.46976 0,0 -0.307713,-95.23958 -0.307713,-95.23958 C 33.147672,281.51025 23.885272,269.08448 1.4216603,267.31203 0.74468372,267.26897 0.02461629,266.31501 0,265.33029 c 0,0 0.0184893,-13.46584 0.0184893,-13.46584 0.05548122,-0.92934 0.57235502,-1.54477 1.3601296,-1.7417 26.0824081,-2.61564 31.3136661,-16.15536 32.4645361,-31.5414 0,0 -0.06769,-101.78789 -0.06769,-101.78789 1.674002,-27.190198 19.355651,-54.940464 61.427225,-55.611293 0,0 10.00093,-0.01203 10.00093,-0.01203 1.10779,0.0246 1.6863,0.86163 1.69247,2.135585 z"/>
</svg>
