<svg xmlns="http://www.w3.org/2000/svg" width="512" height="512" fill="#202330">
  <path d="M404.925 63.303l.018 20.765c.007.897.381 1.801 1.334 1.869 21.902 1.445 34.958 10.21 36.046 43.14l.154 80.028c-.012 39.101 22.197 45.556 30.495 49.244-7.991 3.381-30.815 9.3-30.428 50.559v79.911c-1.076 19.437-8.219 34.804-35.806 36.728-1.365.018-1.826.922-1.844 1.998v20.746c.007 1.438.885 2.44 1.998 2.459l12.989.08c36.649-1.537 56.626-27.821 57.702-55.403l.307-95.125c.695-19.056 9.946-31.467 32.383-33.237.676-.043 1.395-.996 1.42-1.979l-.018-13.45c-.055-.928-.572-1.543-1.358-1.74-26.051-2.612-31.276-16.136-32.426-31.504l.068-101.666c-1.672-27.158-19.332-54.875-61.353-55.545l-9.989-.012c-1.106.025-1.684.861-1.69 2.133z"/>
  <path d="M270.986 315.748c-12.644-28.362 3.897-55.071 45.359-51.74-26.598-11.938-38.45-56.977 11.735-70.279-37.373-17.337-27.94-59.989-5.725-67.627-21.054-9.732-22.376-37.475-12.771-51.269-37.497 32.837-66.695 50.971-73.15 84.626-3.885 22.474 4.149 45.322 3.996 65.005-.307 44.72-16.29 79.911-53.172 92.205-15.982-49.176.074-99.656-4.229-111.95 28.817-24.668 37.816-41.726 44.185-58.169-22.406 22.59-46.103 30.471-56.497 32.37l6.681-10.696c-16.116 6.842-28.06 10.563-39.528 20.258-6.072 5.213-8.055 10.427-12.082 15.64-20.9 5.477-15.927 18.158-10.173 27.158 0 0 2.803-5.704 8.889-7.266 7.432-.559 17.992-.166 17.992-.166 2.096.137 7.432 1.285 4.248 17.488-10.204 36.329-11.569 81.479 2.065 118.361 11.962 34.085 34.57 54.697 69.811 67.182 32.348 9.534 68.06 5.513 101.036-11.11 32.77-18.181 42.737-31.483 55.363-52.721 11.513-23.131 16.88-45.488 17.55-64.82 1.119-29.057-2.459-43.029-4.358-61.47-2.01-11.065-5.304-43.806-5.992-55.264-.465-6.306.134-15.217 1.363-20.804l17.815 29.91-8.046-80.919-49.397 60.69 30.523-11.385c-2.569 7.825-3.131 11.091-4.249 18.689-1.985 13.489.825 84.608-3.492 108.795-7.493 41.105-31.947 59.596-62.682 70.974-16.99 4.604-36.882 7.395-64.267.916-12.405-4.026-23.359-10.505-29.168-15.423 8.268-1.008 10.057-.897 23.807 6.479-3.799-19.222 6.928-45.931 36.563-33.667z"/>
  <path d="M107.075 63.303l-.018 20.765c-.007.897-.381 1.801-1.334 1.869-21.902 1.445-34.958 10.21-36.046 43.14l-.154 80.028c.012 39.101-22.197 45.556-30.495 49.244 7.991 3.381 30.815 9.3 30.428 50.559v79.911c1.076 19.437 8.219 34.804 35.806 36.728 1.365.018 1.826.922 1.844 1.998v20.746c-.007 1.438-.885 2.44-1.998 2.459l-12.989.08c-36.649-1.537-56.626-27.821-57.702-55.403l-.307-95.125c-.695-19.056-9.946-31.467-32.383-33.237-.676-.043-1.395-.996-1.42-1.979l.018-13.45c.055-.928.572-1.543 1.358-1.74 26.051-2.612 31.276-16.136 32.426-31.504l-.068-101.666c1.672-27.158 19.332-54.875 61.353-55.545l9.989-.012c1.106.025 1.684.861 1.69 2.133z"/>
</svg>
